<svg id="Layer_1" data-name="Layer 1" xmlns="http://www.w3.org/2000/svg" xmlns:xlink="http://www.w3.org/1999/xlink" viewBox="0 0 1072.01 124.9"><defs><style>.cls-1,.cls-10,.cls-11,.cls-2,.cls-3,.cls-4,.cls-5,.cls-6,.cls-7,.cls-8,.cls-9{stroke:#fcfcfc;stroke-miterlimit:10;stroke-width:4px;}.cls-1{fill:url(#linear-gradient);}.cls-2{fill:url(#linear-gradient-2);}.cls-3{fill:url(#linear-gradient-3);}.cls-4{fill:url(#linear-gradient-4);}.cls-5{fill:url(#linear-gradient-5);}.cls-6{fill:url(#linear-gradient-6);}.cls-7{fill:url(#linear-gradient-7);}.cls-8{fill:url(#linear-gradient-8);}.cls-9{fill:url(#linear-gradient-9);}.cls-10{fill:url(#linear-gradient-10);}.cls-11{fill:url(#linear-gradient-11);}</style><linearGradient id="linear-gradient" x1="6803.4" y1="6950.7" x2="6803.4" y2="7071.93" gradientUnits="userSpaceOnUse"><stop offset="0.05" stop-color="#d19e11"/><stop offset="0.38" stop-color="#ebcb81"/><stop offset="0.43" stop-color="#915c4c"/><stop offset="0.49" stop-color="#915c4c"/><stop offset="0.57" stop-color="#ca8e46"/><stop offset="0.85" stop-color="#ca8e46"/><stop offset="0.97" stop-color="#524343"/></linearGradient><linearGradient id="linear-gradient-2" x1="6879.08" y1="6949.83" x2="6879.08" y2="7069.43" gradientUnits="userSpaceOnUse"><stop offset="0.05" stop-color="#d19e11"/><stop offset="0.38" stop-color="#ebcb81"/><stop offset="0.45" stop-color="#915c4c"/><stop offset="0.51" stop-color="#915c4c"/><stop offset="0.62" stop-color="#ca8e46"/><stop offset="0.85" stop-color="#ca8e46"/><stop offset="0.97" stop-color="#524343"/></linearGradient><linearGradient id="linear-gradient-3" x1="6956.28" y1="6971.05" x2="6956.28" y2="7067.67" gradientUnits="userSpaceOnUse"><stop offset="0.05" stop-color="#d19e11"/><stop offset="0.32" stop-color="#ebcb81"/><stop offset="0.37" stop-color="#915c4c"/><stop offset="0.41" stop-color="#915c4c"/><stop offset="0.51" stop-color="#ca8e46"/><stop offset="0.88" stop-color="#ca8e46"/><stop offset="0.97" stop-color="#524343"/></linearGradient><linearGradient id="linear-gradient-4" x1="7056.62" y1="6963.1" x2="7056.62" y2="7064.03" gradientUnits="userSpaceOnUse"><stop offset="0.05" stop-color="#d19e11"/><stop offset="0.36" stop-color="#ebcb81"/><stop offset="0.43" stop-color="#915c4c"/><stop offset="0.49" stop-color="#915c4c"/><stop offset="0.6" stop-color="#ca8e46"/><stop offset="0.95" stop-color="#ca8e46"/><stop offset="1" stop-color="#524343"/></linearGradient><linearGradient id="linear-gradient-5" x1="7150.19" y1="6970.73" x2="7150.19" y2="7063.34" gradientUnits="userSpaceOnUse"><stop offset="0.05" stop-color="#d19e11"/><stop offset="0.32" stop-color="#ebcb81"/><stop offset="0.4" stop-color="#915c4c"/><stop offset="0.48" stop-color="#915c4c"/><stop offset="0.61" stop-color="#ca8e46"/><stop offset="0.93" stop-color="#ca8e46"/><stop offset="1" stop-color="#524343"/></linearGradient><linearGradient id="linear-gradient-6" x1="7247.16" y1="6969.71" x2="7247.16" y2="7065.45" gradientUnits="userSpaceOnUse"><stop offset="0.05" stop-color="#d19e11"/><stop offset="0.29" stop-color="#ebcb81"/><stop offset="0.38" stop-color="#915c4c"/><stop offset="0.44" stop-color="#915c4c"/><stop offset="0.54" stop-color="#ca8e46"/><stop offset="0.91" stop-color="#ca8e46"/><stop offset="1" stop-color="#524343"/></linearGradient><linearGradient id="linear-gradient-7" x1="7361.1" y1="6947.54" x2="7361.1" y2="7080.17" gradientUnits="userSpaceOnUse"><stop offset="0.05" stop-color="#d19e11"/><stop offset="0.38" stop-color="#ebcb81"/><stop offset="0.43" stop-color="#915c4c"/><stop offset="0.49" stop-color="#915c4c"/><stop offset="0.57" stop-color="#ca8e46"/><stop offset="0.85" stop-color="#ca8e46"/><stop offset="0.97" stop-color="#524343"/></linearGradient><linearGradient id="linear-gradient-8" x1="7475.22" y1="6969.07" x2="7475.22" y2="7072.5" gradientUnits="userSpaceOnUse"><stop offset="0.05" stop-color="#d19e11"/><stop offset="0.27" stop-color="#ebcb81"/><stop offset="0.39" stop-color="#915c4c"/><stop offset="0.47" stop-color="#915c4c"/><stop offset="0.53" stop-color="#ca8e46"/><stop offset="0.85" stop-color="#ca8e46"/><stop offset="0.97" stop-color="#524343"/></linearGradient><linearGradient id="linear-gradient-9" x1="7581.17" y1="6968.7" x2="7581.17" y2="7069.18" gradientUnits="userSpaceOnUse"><stop offset="0.05" stop-color="#d19e11"/><stop offset="0.3" stop-color="#ebcb81"/><stop offset="0.41" stop-color="#915c4c"/><stop offset="0.48" stop-color="#915c4c"/><stop offset="0.58" stop-color="#ca8e46"/><stop offset="0.9" stop-color="#ca8e46"/><stop offset="0.97" stop-color="#524343"/></linearGradient><linearGradient id="linear-gradient-10" x1="7686.56" y1="6961.24" x2="7686.56" y2="7074.67" gradientUnits="userSpaceOnUse"><stop offset="0.05" stop-color="#d19e11"/><stop offset="0.38" stop-color="#ebcb81"/><stop offset="0.43" stop-color="#915c4c"/><stop offset="0.49" stop-color="#915c4c"/><stop offset="0.57" stop-color="#ca8e46"/><stop offset="0.87" stop-color="#ca8e46"/><stop offset="0.97" stop-color="#524343"/></linearGradient><linearGradient id="linear-gradient-11" x1="7789.65" y1="6972.12" x2="7787.08" y2="7071.31" gradientUnits="userSpaceOnUse"><stop offset="0.05" stop-color="#d19e11"/><stop offset="0.34" stop-color="#ebcb81"/><stop offset="0.4" stop-color="#915c4c"/><stop offset="0.47" stop-color="#915c4c"/><stop offset="0.56" stop-color="#ca8e46"/><stop offset="0.88" stop-color="#ca8e46"/><stop offset="0.97" stop-color="#524343"/></linearGradient></defs><path class="cls-1" d="M6760.54,6972.28q.36-6.68.47-12.38c.08-3.8.16-6.57.24-8.29a108.48,108.48,0,0,1,14.18-2.74q7.66-1,15.82-1.34,6.09-.24,12.18-.29,2.11,0,4.11.06,8.09.1,15.35.35t13.3.58c4,.24,7.36.45,10,.65,0,1.4.06,2.81.06,4.21q0,4.14-.3,8.48a57.21,57.21,0,0,1-2.16,12.21q-4.4.21-9.2.23c-1.61,0-3.22.06-4.84.06s-3.23,0-4.83-.06c-3.24-.05-6.47-.11-9.67-.19-1.05,0-2.11,0-3.16,0q-3.16,0-6.33.12c-.71.55-1.21,1.73-1.53,3.54a51,51,0,0,0-.52,6.08c0,1.15-.06,2.26-.06,3.34s0,2.14.06,3.16c.07,2,.11,3.6.11,4.67a27.55,27.55,0,0,0,7.45,1.15c3.12.14,6.42.22,9.9.26,1.72,0,3.43,0,5.12,0s3.39,0,5.07,0h1.41c2.73,0,5.06.1,7,.29a49.87,49.87,0,0,1,1,5.41,26.82,26.82,0,0,1,.23,3.43c0,.46,0,.91-.06,1.34a38.16,38.16,0,0,1-.52,4.7,50.27,50.27,0,0,1-1.29,5.35q-4.46.59-8.76.76c-2.87.11-5.74.26-8.62.43s-5.77.39-8.7.62a48.7,48.7,0,0,0-8.73,1.53,47.58,47.58,0,0,0-.17,4.88q-.06,4.53-.09,10.79t.12,13.38q.14,7.13.38,12.65a34.13,34.13,0,0,1-6.72,1.73q-4.44.79-9.62,1.21c-3.45.27-7,.41-10.55.41a68.46,68.46,0,0,1-9.5-.58q-1.35-11.34-1.64-23.56-.18-7.34-.12-14.49,0-4.83.06-9.6.21-11.93.8-22.95t1.14-19.82a16.24,16.24,0,0,1-4-.68Z" transform="translate(-6758.46 -6944.58)"/><path class="cls-2" d="M6861.32,6967.92q.06-8.91.41-14.35a21.74,21.74,0,0,1,3.38-.8,58.26,58.26,0,0,1,5.82-.67c2.24-.16,4.62-.25,7.16-.29l7.55-.12H6888c1.53,0,3,0,4.34.06,2,.08,3.51.16,4.5.23q-.12,5.63-.23,15.35t-.18,21q-.06,11.28-.06,23.29v49.92c-2.81.32-5.14.57-7,.77s-3.9.31-6.15.35h-1.38q-3,0-6.69-.18-4.71-.24-13-.58-.13-4.69-.37-13t-.27-18.55q0-10.22-.07-21.44t-.06-21.65q-.06-7-.06-13.25Z" transform="translate(-6758.46 -6944.58)"/><path class="cls-3" d="M6910.6,6996.56c0-4.11.12-7.87.24-11.25a70.77,70.77,0,0,1,.64-8.11,165.14,165.14,0,0,1,16.79-1.25h2.36a138.1,138.1,0,0,1,15.13.89q-.7,9.39-.94,17.53-.24,6.65-.23,12.89V7010q.06,7.48.41,14.35t.88,13.7a21.92,21.92,0,0,0,5.26,1.19c1.4.15,2.82.25,4.26.29.62,0,1.29,0,2-.06a23.19,23.19,0,0,0,6.1-1.16,14.88,14.88,0,0,0,4.89-2.58q0-7.06-.12-14.74t-.21-15.38q-.09-7.73-.08-15.15t.17-13.73a83.44,83.44,0,0,1,16.71-1.71q8.32,0,17.1-.23c-.08,5-.2,10.5-.35,16.41s-.28,11.9-.35,17.94-.12,11.89-.12,17.53.08,10.66.23,15.06a23.67,23.67,0,0,1-2.13,4.57q-1.45,2.47-3.33,5.13t-3.85,5.13q-2,2.47-3.73,4.45c-4,.07-8.59.23-13.91.45s-10.9.44-16.76.63-11.71.29-17.53.29-11.18-.19-16.09-.58a41.75,41.75,0,0,1-3.39-3.78q-1.91-2.37-3.8-5c-1.25-1.76-2.38-3.53-3.39-5.29a30.46,30.46,0,0,1-2.2-4.63q0-3.57-.12-9t-.23-11.72q-.12-6.3-.24-13-.06-4.39-.06-8.68Z" transform="translate(-6758.46 -6944.58)"/><path class="cls-4" d="M7014.61,7001.73c.11-2.11.27-4.06.46-5.86s.41-3.26.65-4.39q2.4-.24,7.32-.41t10.67-.18q.16-6.51.52-12.39t1.06-10.75a58.27,58.27,0,0,1,1.73-8.27,17.33,17.33,0,0,1,2.38-5.21,118,118,0,0,1,14.32-4.37,120.8,120.8,0,0,1,12.89-2.22q6.36-.74,13.07-.85l14.91-.24a5.8,5.8,0,0,1,1.84,2.87,31.58,31.58,0,0,1,1.32,4.93,50.55,50.55,0,0,1,.76,5.91q.18,2.05.18,3.81c0,.59,0,1.16-.06,1.7a98.19,98.19,0,0,0-13.89,2,37.78,37.78,0,0,0-12.66,5.13,20.24,20.24,0,0,0-1.78,5.24,80.46,80.46,0,0,0-1.26,10.4,46,46,0,0,0,6.22.71c1.93.08,3.81.11,5.65.11s3.68,0,5.55-.05h1.17c1.52,0,3.08.05,4.67.17a45.79,45.79,0,0,1,.94,5.51c.12,1.29.17,2.58.17,3.87a1.52,1.52,0,0,1,.36.93,28,28,0,0,1-.54,4.81c-.31,1.6-.71,3.4-1.18,5.39q-4.4.58-7,.79c-1.74.14-3.38.28-4.92.44s-3.18.35-4.92.59-4.07.64-7,1.23q-.12,6-.12,13.06v13.68q0,6.6.06,12.16c0,3.71.1,6.53.18,8.44a84.52,84.52,0,0,1-8.43,1.32q-4.55.49-9.18.73c-2.47.12-4.85.18-7.16.18h-1.76a58.66,58.66,0,0,1-7.46-.53c-.15-2.07-.29-4.84-.4-8.32s-.22-7.37-.33-11.69-.19-8.95-.26-13.92-.12-10.05-.12-15.29c-3.28.16-6.45.32-9.49.5a82.67,82.67,0,0,0-8.27.85,42.71,42.71,0,0,1-.76-6.15c-.11-1.25-.17-2.5-.17-3.75Q7014.55,7003.08,7014.61,7001.73Z" transform="translate(-6758.46 -6944.58)"/><path class="cls-5" d="M7108.18,7001.73c.12-2.11.27-4.06.47-5.86s.41-3.26.64-4.39c1.6-.16,4.05-.3,7.33-.41s6.83-.18,10.66-.18q.17-6.51.53-12.39c.23-3.93.59-7.51,1.06-10.75a56.9,56.9,0,0,1,1.73-8.27,17.1,17.1,0,0,1,2.37-5.21,117.61,117.61,0,0,1,14.33-4.37,120.36,120.36,0,0,1,12.89-2.22q6.35-.74,13.06-.85l14.91-.24a5.8,5.8,0,0,1,1.85,2.87,32.77,32.77,0,0,1,1.31,4.93,50.49,50.49,0,0,1,.77,5.91c.11,1.37.17,2.64.17,3.81,0,.59,0,1.16-.06,1.7a98.19,98.19,0,0,0-13.89,2,37.86,37.86,0,0,0-12.66,5.13,20.62,20.62,0,0,0-1.78,5.24,80.46,80.46,0,0,0-1.26,10.4,46,46,0,0,0,6.23.71c1.93.08,3.81.11,5.64.11s3.68,0,5.55-.05h1.17c1.52,0,3.08.05,4.68.17a43.69,43.69,0,0,1,.93,5.51q.18,1.94.18,3.87a1.56,1.56,0,0,1,.35.93,29,29,0,0,1-.53,4.81c-.32,1.6-.71,3.4-1.19,5.39q-4.38.58-7,.79c-1.74.14-3.38.28-4.92.44s-3.18.35-4.92.59-4.07.64-7,1.23q-.1,6-.11,13.06v13.68q0,6.6,0,12.16c0,3.71.1,6.53.18,8.44a84.3,84.3,0,0,1-8.42,1.32c-3,.33-6.1.57-9.19.73q-3.69.18-7.16.18h-1.76a58.49,58.49,0,0,1-7.45-.53q-.24-3.11-.41-8.32t-.32-11.69c-.1-4.32-.19-8.95-.27-13.92s-.12-10.05-.12-15.29c-3.28.16-6.44.32-9.49.5a82.15,82.15,0,0,0-8.26.85,41.35,41.35,0,0,1-.76-6.15q-.18-1.87-.18-3.75Q7108.12,7003.08,7108.18,7001.73Z" transform="translate(-6758.46 -6944.58)"/><path class="cls-6" d="M7199.29,6974.07c2.82-.23,5.95-.47,9.41-.73s6.8-.48,10.05-.67,6.09-.33,8.55-.41c.78,0,1.49-.06,2.11-.06a9.87,9.87,0,0,1,2.29.17,40.3,40.3,0,0,0,2.37,6.19q1.71,3.66,3.61,7.26t3.49,6.59c1.05,2,1.77,3.44,2.14,4.34a5.35,5.35,0,0,0,.59,1.08c.32.49.68,1,1.09,1.5a9.09,9.09,0,0,0,1.31,1.32,2.13,2.13,0,0,0,1.26.55,3.71,3.71,0,0,0,2.87-1.26,8.19,8.19,0,0,0,1.48-2q3.19-6.09,6.13-12.68a111.27,111.27,0,0,1,6.64-12.63q5-.4,9.5-.41h1.17c3.32,0,6.3.15,8.93.35s4.9.44,6.77.73a37,37,0,0,1,4,.79q-3.87,5.4-8.09,12.31t-8.73,14.21q-4.52,7.29-9,14.5t-8.68,13.48q-.23,9-.48,17.22t-.48,15.18a51.61,51.61,0,0,1-7.23.94q-3.83.23-7.68.23c-2.56,0-5.11-.08-7.62-.23s-4.9-.24-7.17-.24q0-8.61-.23-17.08t-.51-17.14a77.15,77.15,0,0,1-5.28-6.94q-2.86-4.18-5.91-9.05c-2-3.25-4.06-6.66-6.07-10.26s-3.88-7.07-5.59-10.43-3.18-6.48-4.37-9.37A65.68,65.68,0,0,1,7199.29,6974.07Z" transform="translate(-6758.46 -6944.58)"/><path class="cls-7" d="M7306.58,7012.6q-.06-10.58-.06-20.89t.18-19.75q.17-9.42.41-16.52c.47-.47,1.86-.94,4.16-1.41s5.13-.94,8.48-1.43,7-.93,11-1.32,7.77-.67,11.43-.85,7-.3,10-.38h1.71a27.34,27.34,0,0,1,5,.35q3.85,12.26,8.57,24t9.39,23.38a4.44,4.44,0,0,0,1.38,1.62,2.75,2.75,0,0,0,2,.55,3.26,3.26,0,0,0,2-1.14,7.24,7.24,0,0,0,1.46-3.14,24.6,24.6,0,0,0,.23-2.95q.12-2.49.18-6.22c0-2.48.11-5.23.23-8.26s.2-6,.24-9,.09-5.75.17-8.35.16-4.74.23-6.42a87.5,87.5,0,0,1,22.29-2.93q4.13,0,8.24.41.18,17.64.18,35.34,0,8.84-.06,17.75-.12,26.6-.81,52.85-3.84.59-9.14,1.26t-11.44,1.35q-6.13.68-12.81,1.14t-13.24.59a221.77,221.77,0,0,1-11.82-22.47q-5.32-11.7-9.83-23.94a3.42,3.42,0,0,0-1.7-2,3.54,3.54,0,0,0-2.4-.41,3.79,3.79,0,0,0-2.13,1.32,5.52,5.52,0,0,0-1.2,3.19,238.71,238.71,0,0,0-1.12,25.43q0,8.32.36,17.69a70,70,0,0,1-14.67,2.29q-1.31.06-2.67.06a65.28,65.28,0,0,1-12.65-1.29q-.47-4.57-.86-12.31t-.62-17.19Q7306.63,7023.17,7306.58,7012.6Z" transform="translate(-6758.46 -6944.58)"/><path class="cls-8" d="M7428.16,7033.71q-.16-2.94-.17-6.06c0-2.76.09-5.59.29-8.51a133.4,133.4,0,0,1,1.73-14.88,105.35,105.35,0,0,1,3.19-13.37,38,38,0,0,1,4.46-9.89,42.24,42.24,0,0,1,9.28-3.08q6.18-1.47,13.78-2.6t15.89-2q8.18-.89,15.4-1.22,4.32-.23,8.05-.22c1.62,0,3.17,0,4.63.11q5.43.24,7.52,1.11a59.06,59.06,0,0,1,4.71,11,105.21,105.21,0,0,1,3.26,13.09,137,137,0,0,1,1.85,14.15,102.69,102.69,0,0,1,.41,10.28c0,1.29,0,2.56-.06,3.8q-3.84.59-10.63,1.28t-14.84,1.31q-8.07.6-16.61,1.07t-15.75.7a33.54,33.54,0,0,0,.73,4.53,14.22,14.22,0,0,0,1.32,3.53,20.32,20.32,0,0,0,5.54,2.23,48.91,48.91,0,0,0,8.3,1.49l9.56,1,9.36.95,7.66.78a17.31,17.31,0,0,1,4.32.78c0,.51.06,1.07.06,1.66,0,1.18-.06,2.45-.18,3.82a54.91,54.91,0,0,1-.75,5.95,35.64,35.64,0,0,1-1.3,5.12,5.56,5.56,0,0,1-1.82,2.93q-8.19,0-17.82-.58t-19.47-1.8q-9.84-1.21-19.34-3.28a165.72,165.72,0,0,1-17.4-4.7,19.88,19.88,0,0,1-3.54-8.18A69.83,69.83,0,0,1,7428.16,7033.71Zm37.09-22c.86.05,1.72.07,2.58.07a50.07,50.07,0,0,0,9.84-.82,100.86,100.86,0,0,0,10-2.22c.08-1,.12-2,.12-3.1a43.34,43.34,0,0,0-.24-4.55,20.63,20.63,0,0,0-1.81-7.12l-3.9.2c-1.23.06-2.51.17-3.84.34s-2.73.42-4.22.76a24.46,24.46,0,0,0-5,1.83q-1,3.73-2,6.65A41.54,41.54,0,0,0,7465.25,7011.74Z" transform="translate(-6758.46 -6944.58)"/><path class="cls-9" d="M7534.8,7016.44q-.06-4.06-.06-7.87,0-5.73.12-11,0-8.76.17-15.44a40,40,0,0,1,.9-9.31,49.61,49.61,0,0,1,8.49-1.29q5.49-.47,12.27-.64,3.42-.12,7-.09l7.38.09q7.6.18,14.89.52t13.72.82a107.3,107.3,0,0,1,10.73,1.23,49.12,49.12,0,0,1,12,15.89,49.7,49.7,0,0,1,3.77,11.16,36,36,0,0,1,.87,8.41c0,1.28-.06,2.57-.18,3.85q-2.37,2.88-6.58,7.29c-2.81,2.94-5.79,5.81-9,8.63q1.47,2.18,3.9,6.55t5,9.08q2.58,4.69,4.69,8.72t2.69,5.37a32.6,32.6,0,0,1-5.59,2q-3.78,1.08-8.25,2.06c-3,.64-6,1.18-9.12,1.61a79.8,79.8,0,0,1-8.3.76q-2.51-2.76-4.55-5.22c-1.36-1.65-2.71-3.31-4-5s-2.62-3.38-3.88-5.11-2.7-3.58-4.3-5.58a27.22,27.22,0,0,0-1.85-2.32,20.24,20.24,0,0,0-2.11-2.05,8.85,8.85,0,0,0-2.23-1.41,3.17,3.17,0,0,0-2.49,0,2.88,2.88,0,0,0-1.9,2.38,16,16,0,0,0-.26,3.37v9.25q0,4.68-.24,9.37a50.66,50.66,0,0,1-5.75,1.09c-2.35.33-5,.62-7.84.85s-6,.35-9.25.35-6.61-.15-10-.47q-.36-4-.49-11.63t-.22-16.94Q7534.88,7026.54,7534.8,7016.44Zm33.72-17c-.1,2.12-.14,4.2-.14,6.26s.06,4,.2,5.9a45.17,45.17,0,0,0,.56,4.76c1.52,0,3.3-.1,5.33-.3a62.21,62.21,0,0,0,6.24-.91,36.09,36.09,0,0,0,6-1.67,13.54,13.54,0,0,0,4.63-2.76,15.31,15.31,0,0,0,.12-1.94c0-.74,0-1.53-.12-2.35-.15-1.56-.38-3.11-.67-4.64s-.58-2.85-.85-4-.45-1.87-.53-2.26a8.94,8.94,0,0,0-4-1.94,36.38,36.38,0,0,0-6-1.06,33.8,33.8,0,0,0-3.45-.18q-1.35,0-2.64.12a9.8,9.8,0,0,0-4.28,1.12Q7568.68,6996.23,7568.52,6999.4Z" transform="translate(-6758.46 -6944.58)"/><path class="cls-10" d="M7638.1,7038.9a30.71,30.71,0,0,1-.41-5.24,55.19,55.19,0,0,1,.41-6.36A87.55,87.55,0,0,1,7641,7013a82.38,82.38,0,0,1,5.29-13.71,35.88,35.88,0,0,1,7.11-10.19q5.39-1.05,11-2.34t11.45-2.22q5.74-1,11.74-1.46c2.35-.2,4.71-.3,7.1-.3,1.68,0,3.37.06,5.05.18q0-3.34.12-7.6c.08-2.84.15-5.7.23-8.6s.18-5.68.29-8.36.22-5,.3-7a28.43,28.43,0,0,1,8.15-1.94,67.32,67.32,0,0,1,6.86-.35c.86,0,1.75,0,2.66.06a67.86,67.86,0,0,1,9.33,1,43,43,0,0,1,7.63,2q0,12.26.06,26.82v29.4q-.06,14.52-.36,28.75t-1.3,25.72a103.16,103.16,0,0,1-13.46,2.46q-7.22.85-14.59,1.16-4.61.16-9.21.17c-1.84,0-3.65,0-5.45-.06q-7.28-.18-13.81-.75t-12-1.13q-5.44-.54-9.2-1a56.08,56.08,0,0,1-9.56-11.48Q7642,7045.15,7638.1,7038.9Zm36.39-12.47c-.24,2.09-.37,4.07-.41,5.92a36.53,36.53,0,0,0,.82,8,27.74,27.74,0,0,0,5.17,1,55.7,55.7,0,0,0,6.37.34,63.73,63.73,0,0,0,6.66-.34,45.71,45.71,0,0,0,6.11-1,20.2,20.2,0,0,0,.47-5c0-1.85.06-3.87.06-6v-3.36q-.06-5.17-.18-10.07c-.07-3.27-.15-5.6-.23-7a35.78,35.78,0,0,0-9.22-1.13c-.63,0-1.22,0-1.76.05a28,28,0,0,0-10.93,2.56A143.4,143.4,0,0,0,7674.49,7026.43Z" transform="translate(-6758.46 -6944.58)"/><path class="cls-11" d="M7748.26,7023.15c-.08-1.57-.12-3.15-.12-4.73a91.49,91.49,0,0,1,1.64-17.16,80.77,80.77,0,0,1,7-20.86,146.81,146.81,0,0,1,16.14-4.6q8.4-1.89,17-3t17.07-1.53q5.41-.24,10.76-.24c2.15,0,4.27,0,6.38.05a40.16,40.16,0,0,1,2,10.52q.31,4.27.31,8.11c0,.85,0,1.69-.06,2.53q-9.26,1.35-18.42,2.12t-18.43,2.37a13.69,13.69,0,0,0-2.45,6,59.88,59.88,0,0,0-.6,6.56q9.82,1.83,19.54,3.34l19.65,3a30,30,0,0,1,2.48,9,43.78,43.78,0,0,1,.34,5.5,44.24,44.24,0,0,1-.22,4.43,50.53,50.53,0,0,1-1.83,9.81,42.54,42.54,0,0,1-3.54,8.63,55.32,55.32,0,0,1-12.92,4.83l-17.16,3.67-11.42,2.45-25.56,3.36c-.71-.39-1.32-1.58-1.85-3.57a51.7,51.7,0,0,1-1.26-6.5c-.36-2.34-.61-4.65-.77-6.91-.11-1.48-.17-2.68-.17-3.57a9.11,9.11,0,0,1,.06-1.12l13-1.67,9.1-1.18,6.26-1.3a58.76,58.76,0,0,0,8.51-2.22,18,18,0,0,0,.72-3.64,19.82,19.82,0,0,0,.12-2.16,15.42,15.42,0,0,0-.12-2,12.2,12.2,0,0,0-4.34-1.53c-2-.41-4.29-.8-6.89-1.19s-5.38-.73-8.33-1.06-5.82-.69-8.58-1.07a75.31,75.31,0,0,1-7.55-1.41A17.84,17.84,0,0,1,7748.26,7023.15Z" transform="translate(-6758.46 -6944.58)"/></svg>